<?xml version="1.0" encoding="UTF-8" standalone="no"?>
<svg
   width="1200"
   height="900"
   viewBox="-1000 -2000 2000 1500"
   version="1.1"
   id="svg4381"
   style="background-color:#AA99EE"
   xmlns="http://www.w3.org/2000/svg"
   xmlns:svg="http://www.w3.org/2000/svg">

  <defs id="defs4279aa">

    <style><![CDATA[
       #Feldhintergrund   { fill: #3399EE; stroke:#FFFFFF; stroke-width:10 }
       #Mittellinie       { fill: none;    stroke:#FFFFFF; stroke-width:10 }
       #Torraum           { fill: #0066aa; stroke:#FFFFFF; stroke-width:10 }
       #Torlinie          { fill: none;    stroke:#FFFFFF; stroke-width:20 }
       #Torwartgrenzlinie { fill: none;    stroke:#FFFFFF; stroke-width:10 }
       #smLinie           { fill: none;    stroke:#FFFFFF; stroke-width:10 }
       #Auswechsellinien  { fill: none;    stroke:#FFFFFF; stroke-width:10 }
       #Freiwurflinie     { fill: none;    stroke:#FFFFFF; stroke-width:10; stroke-dasharray:30,30}
    ]]></style>

    <clipPath id="Feld">
      <rect id="Feldlinie" width="2000" height="4000" x="-1000" y="-2000" />
    </clipPath>
  </defs>

  <path id="Feldhintergrund"   d="m -1000,-2000 m 5,5 h 1990 v 3990 h -1990 z" />

  <path id="Mittellinie"       d="m -1000,0 m 5,0 h 1990" />
  
  <path id="Torraum"           d="m -750,-2000 m 5,0 a 595,595 0 0 0 595,595 H 150 A 595,595 0 0 0 745,-2000 m 0,5 H -750" clip-path="url(#Feld)" />

  <path id="Torlinie"          d="m -150,-2000 m 0,10 H 150" />

  <path id="Torwartgrenzlinie" d="m -15,-1600 m 0,-5 H 15" />

  <path id="smLinie"           d="m -50,-1300 m 0,-5 H 50" />

  <path id="Auswechsellinien"  d="m 1000,-450 m 15,5 h -40" />

  <path id="Freiwurflinie"     d="m -1050,-2000 m 5,0 a 895,895 0 0 0 895,895 h 300 a 895,895 0 0 0 895,-895" clip-path="url(#Feld)" />

</svg>
