<?xml version="1.0" encoding="UTF-8" standalone="no"?>
<svg
   width="620"
   height="980"
   viewBox="-1100 -1650 2200 2200"
   version="1.1"
   id="svg4381"
   style="background-color:green"
   sodipodi:docname="Handballfeld.svg"
   inkscape:version="1.2.2 (732a01da63, 2022-12-09)"
   xmlns:inkscape="http://www.inkscape.org/namespaces/inkscape"
   xmlns:sodipodi="http://sodipodi.sourceforge.net/DTD/sodipodi-0.dtd"
   xmlns="http://www.w3.org/2000/svg"
   xmlns:svg="http://www.w3.org/2000/svg">

  <defs id="defs4279">

    <style><![CDATA[
       #Feldhintergrund   { fill: #3399EE; stroke:#FFFFFF; stroke-width:5 }
       #Mittellinie       { fill: none;    stroke:#FFFFFF; stroke-width:5 }
       #Torraum           { fill: #0066AA; stroke:#FFFFFF; stroke-width:5 }
       #Torlinie          { fill: none;    stroke:#FFFFFF; stroke-width:8 }
       #Torwartgrenzlinie { fill: none;    stroke:#FFFFFF; stroke-width:5 }
       #smLinie           { fill: none;    stroke:#FFFFFF; stroke-width:5 }
       #Auswechsellinien  { fill: none;    stroke:#FFFFFF; stroke-width:5 }
       #Freiwurflinie  { fill: none;    stroke:#FFFFFF; stroke-width:5; stroke-dasharray:15,15}
    ]]></style>

    <clipPath id="Feld">
      <rect id="Feldlinie" width="2000" height="4000" x="-1000" y="-2000" />
    </clipPath>
  </defs>

  <path id="Feldhintergrund"   d="m -1000,-2000 m 2.5,2.5 h 1995 v 3995 h -1995 z" />

  <path id="Mittellinie"       d="m -1000,0 m 2.5,0 h 1995" />
  
  <path id="Torraum"           d="m -750,-2000 m 2.5,0 a 597.5,597.5 0 0 0 597.5,597.5 H 150 A 597.5,597.5 0 0 0 747.5,-2000 m 0,2.5 H -750" clip-path="url(#Feld)" />

  <path id="Torlinie"          d="m -150,-2000 m 0,4 h 300" />

  <path id="Torwartgrenzlinie" d="m -7.5,-1600 m 0,-2.5 h 15" />

  <path id="smLinie"           d="m -50,-1300 m 0,-2.5 H 50" />

  <path id="Auswechsellinien"  d="m 1000,-450 m 15,2.5 h -35" />

  <path id="Freiwurflinie"     d="m -1050,-2000 m 2.5,0 a 897.5,897.5 0 0 0 897.5,897.5 h 300 a 897.5,897.5 0 0 0 897.5,-897.5" clip-path="url(#Feld)" />

  <g id="Tor" style="fill:none;stroke:#0099FF;stroke-width:5">
    <path
       id="Netz"
       d="m -150,-2015 h 300 m -300,-20 h 300 m -300,-20 h 300 m -300,-20 h 300 m -300,-20 h 300 m -300,-20 h 300 m -300,-20 h 300 m -300,-20 h 300 m -300,-20 h 300 m -280,175 v -200 m 20,200 v -200 m 20,200 v -200 m 20,200 v -200 m 20,200 v -200 m 20,200 v -200 m 20,200 v -200 m 20,200 v -200 m 20,200 v -200 m 20,200 v -200 m 20,200 v -200 m 20,200 v -200 m 20,200 v -200 m 20,200 v -200"
       stroke="#000000"
       stroke-width="2" />
    <path
       id="Torrahmen"
       d="m -150,-2000 m -4,8 v -204 h 4 300 4 v 204"
       stroke="#ff0000"
       stroke-width="8" />
    <path
       id="Torstreifen"
       d="m -150,-2000 m -4,8 v -204 h 4 300 4 v 204"
       stroke="#ffffff"
       stroke-width="8"
       stroke-dasharray="20, 20, 20, 20, 20, 20, 20, 20, 20, 48, 20, 20, 20, 20, 20, 20, 20, 20, 20, 20, 20, 20, 20, 48, 0" />
  </g>
</svg>
